<svg xmlns="http://www.w3.org/2000/svg" xmlns:xlink="http://www.w3.org/1999/xlink" width="37" height="56" version="1.1" viewBox="0 0 37 56"><title></title><desc>Created with Sketch.</desc><g id="Page-1" fill="none" fill-rule="evenodd" stroke="none" stroke-width="1"><g id="Artboard-2-Copy" fill="#97A2AE" transform="translate(-32.000000, -17.000000)"><path id="" d="M59.4286041,35.9999619 C59.4286041,41.0356821 55.3214564,45.1428299 50.2857361,45.1428299 C45.2500158,45.1428299 41.142868,41.0356821 41.142868,35.9999619 C41.142868,30.9642416 45.2500158,26.8570938 50.2857361,26.8570938 C55.3214564,26.8570938 59.4286041,30.9642416 59.4286041,35.9999619 Z M68.5714722,35.9999619 C68.5714722,25.8928069 60.392891,17.7142258 50.2857361,17.7142258 C40.1785812,17.7142258 32,25.8928069 32,35.9999619 C32,38.1785359 32.2500003,40.4285386 33.1785728,42.3928266 L46.2143027,70.0357167 C46.9285892,71.6071472 48.5714483,72.571434 50.2857361,72.571434 C52.0000238,72.571434 53.6428829,71.6071472 54.3928838,70.0357167 L67.3928993,42.3928266 C68.3214719,40.4285386 68.5714722,38.1785359 68.5714722,35.9999619 Z"/></g></g></svg>